<svg width="1156" height="661" viewBox="0 0 1156 661" fill="none" xmlns="http://www.w3.org/2000/svg">
<path fill-rule="evenodd" clip-rule="evenodd" d="M463.679 15.9898C581.376 8.05995 688.374 -15.637 794.885 15.9898C925.767 54.8536 1113 72.2622 1151.78 157.999C1190.85 244.392 1071.28 314.758 1023.5 399.5C977.117 481.771 995.834 594.491 878.11 643.407C759.529 692.681 607.058 603.139 463.679 603.222C320.066 603.305 160.442 699.022 48.6788 643.886C-64.9838 587.813 59.2434 468.254 35.7087 380.131C17.4319 311.695 2.40034 255.155 35.7086 188.87C69.0766 122.467 89.1195 97.6891 181.581 57.3116C273.089 17.3503 351.9 23.521 463.679 15.9898Z" fill="#0B5BF6" fill-opacity="0.06"/>
</svg>
