<svg width="1257" height="567" viewBox="0 0 1257 567" fill="none" xmlns="http://www.w3.org/2000/svg">
<path fill-rule="evenodd" clip-rule="evenodd" d="M1395 137.092C1366.08 212.721 1066.76 255.426 959.278 329.561C851.94 403.597 974.893 505.852 790.892 553.776C606.368 601.837 487.147 501.435 300.045 501.263C131.367 501.108 -83.9974 579.251 -218.95 552.846C-352.769 526.664 -313.766 442.594 -325.438 378.883C-337.316 314.054 -402.946 245.157 -287.192 180.371C-171.419 115.575 43.9423 100.005 222.474 72.2259C354.181 51.7331 475.83 51.5159 607.205 41.208C770.046 28.4312 946.47 -12.0119 1083.51 4.66751C1242.09 23.9688 1422.88 64.1726 1395 137.092Z" fill="#0B5BF6" fill-opacity="0.06"/>
</svg>
