<svg width="1142" height="1534" viewBox="0 0 1142 1534" fill="none" xmlns="http://www.w3.org/2000/svg">
<path fill-rule="evenodd" clip-rule="evenodd" d="M439.195 49.2719C545.818 58.1289 651.239 31.744 752.579 75.427C875.871 128.572 1009.61 186.444 1081.56 326.162C1156.81 472.295 1166 705 1081.56 888.5C1010.36 1043.22 1046.64 1148.12 956.386 1280.65C867.224 1411.57 764.35 1433.63 643.234 1510.76C509.295 1547.28 376.144 1548.94 268.435 1455.31C175.167 1374.24 151.36 1217.74 86.5184 1099.16C29.8661 995.567 78.3947 917.02 41.5001 799.5C-2.9084 658.046 -21.5 592 41.5001 364C85.2224 205.767 -14.075 81.115 98.765 21.1159C206.074 -35.9424 323.374 39.651 439.195 49.2719Z" fill="#0B5BF6" fill-opacity="0.06"/>
</svg>
